0
SECTION
2
HEADER
9
$ACADVER
1
AC1009
0
ENDSEC
0
SECTION
2
TABLES
0
TABLE
2
LAYER
70
2
0
LAYER
2
0
70
0
62
111
6
CONTINUOUS
0
LAYER
2
Markings
70
0
62
31
6
CONTINUOUS
0
ENDTAB
0
ENDSEC
0
SECTION
2
BLOCKS
0
BLOCK
8
0
2
CF_INSTANCE_1
70
0
10
0
20
0
30
0
3
CF_INSTANCE_1
1

0
CIRCLE
8
Markings
10
15
20
15
30
0
40
5
0
ENDBLK
8
0
0
BLOCK
8
0
2
CF_INSTANCE_2
70
0
10
0
20
0
30
0
3
CF_INSTANCE_2
1

0
CIRCLE
8
Markings
10
100
20
15
30
0
40
5
0
ENDBLK
8
0
0
BLOCK
8
0
2
CF_INSTANCE_3
70
0
10
0
20
0
30
0
3
CF_INSTANCE_3
1

0
CIRCLE
8
Markings
10
15
20
70
30
0
40
5
0
ENDBLK
8
0
0
ENDSEC
0
SECTION
2
ENTITIES
0
POLYLINE
8
0
66
1
70
1
10
0
20
0
30
0
0
VERTEX
8
0
10
0
20
0
30
0
0
VERTEX
8
0
10
120
20
0
30
0
0
VERTEX
8
0
10
120
20
30
30
0
0
VERTEX
8
0
10
30
20
30
30
0
0
VERTEX
8
0
10
30
20
90
30
0
0
VERTEX
8
0
10
0
20
90
30
0
0
SEQEND
8
0
0
TEXT
8
Markings
10
42
20
42
30
0
40
4
1
L bracket / 3 drilled holes / height 20
0
INSERT
8
0
2
CF_INSTANCE_1
10
0
20
0
30
0
0
INSERT
8
0
2
CF_INSTANCE_2
10
0
20
0
30
0
0
INSERT
8
0
2
CF_INSTANCE_3
10
0
20
0
30
0
0
ENDSEC
0
EOF
